<?xml version="1.0" encoding="UTF-8" standalone="no"?><!DOCTYPE svg PUBLIC "-//W3C//DTD SVG 1.1//EN" "http://www.w3.org/Graphics/SVG/1.1/DTD/svg11.dtd"><svg width="100%" height="100%" viewBox="0 0 459 563" version="1.1" xmlns="http://www.w3.org/2000/svg" xmlns:xlink="http://www.w3.org/1999/xlink" xml:space="preserve" xmlns:serif="http://www.serif.com/" style="fill-rule:evenodd;clip-rule:evenodd;stroke-linejoin:round;stroke-miterlimit:2;"><path d="M360.716,62.5l-183.931,-0c-14.775,0 -26.784,13.138 -26.784,29.301l0,9.191l-52.382,0c-14.775,0 -26.784,13.138 -26.784,29.301l0,307.071c0,16.164 12.009,29.301 26.784,29.301l192.727,0c14.775,0 26.784,-13.138 26.784,-29.301l0,-9.191l43.587,0c14.775,0 26.784,-13.138 26.784,-29.301l0,-307.071c0,-16.164 -12.009,-29.301 -26.784,-29.301Zm-193.124,29.301c0,-5.526 4.14,-10.055 9.191,-10.055l183.931,0c5.051,0 9.191,4.53 9.191,10.055l0,192.027l-202.315,0l0.002,-192.027Zm-69.975,28.437l52.382,0l0,54.563c-6.683,1.973 -12.851,5.77 -17.85,11.108l-1.065,1.203c-7.645,8.232 -11.871,19.19 -11.871,30.899c0,11.691 4.226,22.705 11.871,30.899l18.916,20.299l0,62.737l-61.574,0l0,-201.65c0,-5.526 4.14,-10.055 9.191,-10.055l0.001,-0.002Zm201.919,317.127c0,5.526 -4.14,10.055 -9.191,10.055l-192.727,0c-5.051,0 -9.191,-4.53 -9.191,-10.055l0,-86.174l61.574,0l0,24.058l-26.389,0c-4.845,0 -8.796,4.323 -8.796,9.623c0,5.3 3.951,9.623 8.796,9.623l26.389,0l0,4.379c0,16.164 12.009,29.301 26.784,29.301l122.752,0l-0.001,9.19Zm0,-47.683l-61.574,0c-4.845,0 -8.796,-4.323 -8.796,-9.623c0,-5.3 3.951,-9.623 8.796,-9.623l61.574,0c4.845,0 8.796,4.323 8.796,9.623c0,5.3 -3.951,9.623 -8.796,9.623Zm35.185,-48.115l-131.944,0c-4.845,0 -8.796,-4.323 -8.796,-9.623c0,-5.3 3.951,-9.623 8.796,-9.623l131.944,0c4.845,0 8.796,4.323 8.796,9.623c0,5.3 -3.951,9.623 -8.796,9.623Zm-136.255,-176.448c0.344,-1.879 1.718,-3.364 3.436,-3.759l43.191,-9.623l19.74,-43.247c1.495,-3.27 6.374,-3.27 7.869,0l19.74,43.247l43.191,9.623c1.718,0.376 3.075,1.879 3.436,3.759c0.344,1.879 -0.344,3.797 -1.804,4.905l-34.79,26.313l14.466,47.439c0.567,1.879 0.052,3.947 -1.357,5.187c-0.825,0.808 -1.838,1.184 -2.852,1.184c-0.704,0 -1.443,-0.188 -2.113,-0.583l-41.868,-24.866l-41.868,24.885c-1.581,0.959 -3.522,0.714 -4.931,-0.526c-1.409,-1.259 -1.941,-3.327 -1.357,-5.187l14.466,-47.439l-34.79,-26.313c-1.443,-1.184 -2.148,-3.12 -1.804,-5l-0,0Z" style="fill-rule:nonzero;"/></svg>