<?xml version="1.0" encoding="UTF-8" standalone="no"?><!DOCTYPE svg PUBLIC "-//W3C//DTD SVG 1.1//EN" "http://www.w3.org/Graphics/SVG/1.1/DTD/svg11.dtd"><svg width="100%" height="100%" viewBox="0 0 459 563" version="1.1" xmlns="http://www.w3.org/2000/svg" xmlns:xlink="http://www.w3.org/1999/xlink" xml:space="preserve" xmlns:serif="http://www.serif.com/" style="fill-rule:evenodd;clip-rule:evenodd;stroke-linejoin:round;stroke-miterlimit:2;"><path d="M298.796,301.204c0.781,-0.439 1.611,-0.83 2.458,-1.172l62.5,-20.833c1.921,-0.651 3.662,-1.725 5.095,-3.158l9.212,-9.212c20.296,-20.345 20.296,-53.288 0,-73.65l-92.075,-92.075c-20.622,-19.645 -53.029,-19.645 -73.65,0l-9.212,9.212c-1.432,1.432 -2.506,3.174 -3.158,5.078l-20.833,62.5c-0.342,0.846 -0.749,1.66 -1.172,2.458l-82.813,-82.812c-5.095,-5.095 -13.346,-5.078 -18.425,0.016c-5.095,5.078 -5.078,13.33 0,18.425l79.979,79.979l-48.829,12.207l0.016,0c-2.295,0.586 -4.378,1.758 -6.038,3.434l-36.833,36.816c-5.078,5.095 -5.078,13.33 0,18.408l64.438,64.438l-55.242,55.258c-2.441,2.441 -3.809,5.762 -3.809,9.212c0,3.451 1.367,6.771 3.809,9.212c5.095,5.095 13.33,5.095 18.425,0l55.242,-55.242l64.454,64.438l0,0.016c5.078,5.078 13.314,5.078 18.408,0l36.833,-36.816l0,-0.016c1.676,-1.66 2.848,-3.76 3.418,-6.055l12.207,-48.812l79.979,79.979c5.111,4.948 13.233,4.867 18.262,-0.146c5.013,-5.029 5.095,-13.151 0.163,-18.262l-82.809,-82.825Zm-94.954,-115.008l19.873,-59.633l7.031,-7.048c10.303,-9.831 26.514,-9.831 36.833,0l92.075,92.075c4.883,4.883 7.633,11.507 7.633,18.425c0,6.901 -2.751,13.525 -7.633,18.408l-7.031,7.031l-59.65,19.857c-4.753,1.611 -9.245,3.89 -13.33,6.787l-82.6,-82.6c2.897,-4.085 5.176,-8.561 6.803,-13.298l-0.004,-0.005Zm55.113,125.946l-12.337,49.35l-25.081,25.065l-64.438,-64.421l-64.454,-64.5l25.065,-25.065l49.35,-12.337l0,-0.016c3.499,-0.895 6.901,-2.165 10.14,-3.776l85.529,85.529c-1.611,3.239 -2.881,6.641 -3.776,10.14l0.002,0.031Z" style="fill-rule:nonzero;"/></svg>